<svg xmlns="http://www.w3.org/2000/svg" width="1005" height="600"><rect width="1005" height="600" x="0" y="0" fill="#FFFFFF" id="background"/><g id="viz"><g transform="translate(0,0)"><g transform="translate(50,20)"><g class="bars"><rect id="undefined - 1964" x="0" y="0.9982174688057057" height="10.895437478666516" width="33.86363636363637" fill="#d62728"/><rect id="undefined - 1966" x="0" y="12.891872416277925" height="10.895437478666516" width="33.86363636363637" fill="#2ca02c"/><rect id="undefined - 1972" x="0" y="24.785527363750145" height="10.895437478666516" width="33.86363636363637" fill="#9467bd"/><rect id="undefined - 1977" x="0" y="36.67918231122236" height="10.895437478666516" width="33.86363636363637" fill="#4a90e2"/><rect id="undefined - 1980" x="0" y="48.572837258694584" height="10.895437478666516" width="33.86363636363637" fill="#4a90e2"/><rect id="undefined - 1981" x="0" y="60.466492206166805" height="10.895437478666516" width="33.86363636363637" fill="#4a90e2"/><rect id="undefined - 1982" x="0" y="72.36014715363902" height="10.895437478666516" width="33.86363636363637" fill="#4a90e2"/><rect id="undefined - 1983" x="0" y="84.25380210111125" height="10.895437478666516" width="33.86363636363637" fill="#4a90e2"/><rect id="undefined - 1984" x="0" y="96.14745704858346" height="10.895437478666516" width="101.59090909090908" fill="#4a90e2"/><rect id="undefined - 1985" x="0" y="108.04111199605568" height="10.895437478666516" width="33.86363636363637" fill="#d62728"/><rect id="undefined - 1986" x="0" y="119.9347669435279" height="10.895437478666516" width="33.86363636363637" fill="#8c564b"/><rect id="undefined - 1989" x="0" y="131.82842189100012" height="10.895437478666516" width="67.72727272727273" fill="#4a90e2"/><rect id="undefined - 1990" x="0" y="143.72207683847233" height="10.895437478666516" width="67.72727272727273" fill="#d62728"/><rect id="undefined - 1992" x="0" y="155.61573178594455" height="10.895437478666516" width="33.86363636363637" fill="#4a90e2"/><rect id="undefined - 1993" x="0" y="167.5093867334168" height="10.895437478666516" width="33.86363636363637" fill="#4a90e2"/><rect id="undefined - 1994" x="0" y="179.403041680889" height="10.895437478666516" width="33.86363636363637" fill="#4a90e2"/><rect id="undefined - 1995" x="0" y="191.29669662836122" height="10.895437478666516" width="33.86363636363637" fill="#e377c2"/><rect id="undefined - 1996" x="0" y="203.19035157583343" height="10.895437478666516" width="67.72727272727273" fill="#4a90e2"/><rect id="undefined - 1997" x="0" y="215.08400652330565" height="10.895437478666516" width="135.45454545454547" fill="#4a90e2"/><rect id="undefined - 1998" x="0" y="226.9776614707779" height="10.895437478666516" width="101.59090909090908" fill="#8c564b"/><rect id="undefined - 1999" x="0" y="238.8713164182501" height="10.895437478666516" width="135.45454545454547" fill="#4a90e2"/><rect id="undefined - 2000" x="0" y="250.76497136572232" height="10.895437478666516" width="33.86363636363637" fill="#7f7f7f"/><rect id="undefined - 2001" x="0" y="262.65862631319453" height="10.895437478666516" width="135.45454545454547" fill="#4a90e2"/><rect id="undefined - 2002" x="0" y="274.55228126066675" height="10.895437478666516" width="304.7727272727273" fill="#4a90e2"/><rect id="undefined - 2003" x="0" y="286.44593620813896" height="10.895437478666516" width="270.90909090909093" fill="#f5a623"/><rect id="undefined - 2004" x="0" y="298.3395911556112" height="10.895437478666516" width="203.18181818181816" fill="#4a90e2"/><rect id="undefined - 2005" x="0" y="310.2332461030834" height="10.895437478666516" width="237.04545454545453" fill="#4a90e2"/><rect id="undefined - 2006" x="0" y="322.12690105055566" height="10.895437478666516" width="203.18181818181816" fill="#4a90e2"/><rect id="undefined - 2007" x="0" y="334.0205559980279" height="10.895437478666516" width="203.18181818181816" fill="#4a90e2"/><rect id="undefined - 2008" x="0" y="345.9142109455001" height="10.895437478666516" width="270.90909090909093" fill="#4a90e2"/><rect id="undefined - 2009" x="0" y="357.8078658929723" height="10.895437478666516" width="237.04545454545453" fill="#4a90e2"/><rect id="undefined - 2010" x="0" y="369.7015208404445" height="10.895437478666516" width="304.7727272727273" fill="#4a90e2"/><rect id="undefined - 2011" x="0" y="381.59517578791673" height="10.895437478666516" width="507.95454545454544" fill="#4a90e2"/><rect id="undefined - 2012" x="0" y="393.48883073538894" height="10.895437478666516" width="270.90909090909093" fill="#4a90e2"/><rect id="undefined - 2013" x="0" y="405.38248568286116" height="10.895437478666516" width="338.6363636363636" fill="#4a90e2"/><rect id="undefined - 2014" x="0" y="417.2761406303334" height="10.895437478666516" width="677.2727272727273" fill="#4a90e2"/><rect id="undefined - 2015" x="0" y="429.1697955778056" height="10.895437478666516" width="507.95454545454544" fill="#4a90e2"/><rect id="undefined - 2016" x="0" y="441.0634505252778" height="10.895437478666516" width="440.22727272727275" fill="#4a90e2"/><rect id="undefined - 2017" x="0" y="452.9571054727501" height="10.895437478666516" width="711.1363636363636" fill="#4a90e2"/><rect id="undefined - 2018" x="0" y="464.8507604202223" height="10.895437478666516" width="440.22727272727275" fill="#4a90e2"/><rect id="undefined - 2019" x="0" y="476.7444153676945" height="10.895437478666516" width="507.95454545454544" fill="#4a90e2"/><rect id="undefined - 2020" x="0" y="488.6380703151667" height="10.895437478666516" width="270.90909090909093" fill="#4a90e2"/><rect id="undefined - 2021" x="0" y="500.53172526263893" height="10.895437478666516" width="711.1363636363636" fill="#4a90e2"/><rect id="undefined - 2022" x="0" y="512.4253802101111" height="10.895437478666516" width="406.3636363636363" fill="#4a90e2"/><rect id="undefined - 2023" x="0" y="524.3190351575834" height="10.895437478666516" width="609.5454545454546" fill="#4a90e2"/><rect id="undefined - 2024" x="0" y="536.2126901050556" height="10.895437478666516" width="203.18181818181816" fill="#4a90e2"/><rect id="undefined - 2025" x="0" y="548.1063450525278" height="10.895437478666516" width="67.72727272727273" fill="#4a90e2"/></g><g id="xAxis" transform="translate(0,560)" fill="none" font-size="10" font-family="sans-serif" text-anchor="middle"><path class="domain" stroke="currentColor" d="M0,6V0H745V6"/><g class="tick" opacity="1" transform="translate(0,0)"><line stroke="currentColor" y2="6"/><text fill="currentColor" y="9" dy="0.71em">0</text></g><g class="tick" opacity="1" transform="translate(67.72727272727273,0)"><line stroke="currentColor" y2="6"/><text fill="currentColor" y="9" dy="0.71em">2</text></g><g class="tick" opacity="1" transform="translate(135.45454545454547,0)"><line stroke="currentColor" y2="6"/><text fill="currentColor" y="9" dy="0.71em">4</text></g><g class="tick" opacity="1" transform="translate(203.18181818181816,0)"><line stroke="currentColor" y2="6"/><text fill="currentColor" y="9" dy="0.71em">6</text></g><g class="tick" opacity="1" transform="translate(270.90909090909093,0)"><line stroke="currentColor" y2="6"/><text fill="currentColor" y="9" dy="0.71em">8</text></g><g class="tick" opacity="1" transform="translate(338.6363636363636,0)"><line stroke="currentColor" y2="6"/><text fill="currentColor" y="9" dy="0.71em">10</text></g><g class="tick" opacity="1" transform="translate(406.3636363636363,0)"><line stroke="currentColor" y2="6"/><text fill="currentColor" y="9" dy="0.71em">12</text></g><g class="tick" opacity="1" transform="translate(474.09090909090907,0)"><line stroke="currentColor" y2="6"/><text fill="currentColor" y="9" dy="0.71em">14</text></g><g class="tick" opacity="1" transform="translate(541.8181818181819,0)"><line stroke="currentColor" y2="6"/><text fill="currentColor" y="9" dy="0.71em">16</text></g><g class="tick" opacity="1" transform="translate(609.5454545454546,0)"><line stroke="currentColor" y2="6"/><text fill="currentColor" y="9" dy="0.71em">18</text></g><g class="tick" opacity="1" transform="translate(677.2727272727273,0)"><line stroke="currentColor" y2="6"/><text fill="currentColor" y="9" dy="0.71em">20</text></g><g class="tick" opacity="1" transform="translate(745,0)"><line stroke="currentColor" y2="6"/><text fill="currentColor" y="9" dy="0.71em">22</text></g><text font-family="Arial, sans-serif" font-size="10" x="745" dy="-5" fill="black" font-weight="bold" text-anchor="end">year_count [sum]</text></g><g id="yAxis" transform="translate(0,0)" fill="none" font-size="10" font-family="sans-serif" text-anchor="end"><path class="domain" stroke="currentColor" d="M0,0V560"/><g class="tick" opacity="1" transform="translate(0,6.4459362081389635)"><line stroke="currentColor" x2="-6"/><text fill="currentColor" x="-9" dy="0.32em">1964</text></g><g class="tick" opacity="1" transform="translate(0,18.33959115561118)"><line stroke="currentColor" x2="-6"/><text fill="currentColor" x="-9" dy="0.32em">1966</text></g><g class="tick" opacity="1" transform="translate(0,30.233246103083403)"><line stroke="currentColor" x2="-6"/><text fill="currentColor" x="-9" dy="0.32em">1972</text></g><g class="tick" opacity="1" transform="translate(0,42.12690105055562)"><line stroke="currentColor" x2="-6"/><text fill="currentColor" x="-9" dy="0.32em">1977</text></g><g class="tick" opacity="1" transform="translate(0,54.020555998027845)"><line stroke="currentColor" x2="-6"/><text fill="currentColor" x="-9" dy="0.32em">1980</text></g><g class="tick" opacity="1" transform="translate(0,65.91421094550006)"><line stroke="currentColor" x2="-6"/><text fill="currentColor" x="-9" dy="0.32em">1981</text></g><g class="tick" opacity="1" transform="translate(0,77.80786589297227)"><line stroke="currentColor" x2="-6"/><text fill="currentColor" x="-9" dy="0.32em">1982</text></g><g class="tick" opacity="1" transform="translate(0,89.7015208404445)"><line stroke="currentColor" x2="-6"/><text fill="currentColor" x="-9" dy="0.32em">1983</text></g><g class="tick" opacity="1" transform="translate(0,101.59517578791672)"><line stroke="currentColor" x2="-6"/><text fill="currentColor" x="-9" dy="0.32em">1984</text></g><g class="tick" opacity="1" transform="translate(0,113.48883073538893)"><line stroke="currentColor" x2="-6"/><text fill="currentColor" x="-9" dy="0.32em">1985</text></g><g class="tick" opacity="1" transform="translate(0,125.38248568286116)"><line stroke="currentColor" x2="-6"/><text fill="currentColor" x="-9" dy="0.32em">1986</text></g><g class="tick" opacity="1" transform="translate(0,137.27614063033337)"><line stroke="currentColor" x2="-6"/><text fill="currentColor" x="-9" dy="0.32em">1989</text></g><g class="tick" opacity="1" transform="translate(0,149.1697955778056)"><line stroke="currentColor" x2="-6"/><text fill="currentColor" x="-9" dy="0.32em">1990</text></g><g class="tick" opacity="1" transform="translate(0,161.0634505252778)"><line stroke="currentColor" x2="-6"/><text fill="currentColor" x="-9" dy="0.32em">1992</text></g><g class="tick" opacity="1" transform="translate(0,172.95710547275004)"><line stroke="currentColor" x2="-6"/><text fill="currentColor" x="-9" dy="0.32em">1993</text></g><g class="tick" opacity="1" transform="translate(0,184.85076042022226)"><line stroke="currentColor" x2="-6"/><text fill="currentColor" x="-9" dy="0.32em">1994</text></g><g class="tick" opacity="1" transform="translate(0,196.74441536769447)"><line stroke="currentColor" x2="-6"/><text fill="currentColor" x="-9" dy="0.32em">1995</text></g><g class="tick" opacity="1" transform="translate(0,208.6380703151667)"><line stroke="currentColor" x2="-6"/><text fill="currentColor" x="-9" dy="0.32em">1996</text></g><g class="tick" opacity="1" transform="translate(0,220.5317252626389)"><line stroke="currentColor" x2="-6"/><text fill="currentColor" x="-9" dy="0.32em">1997</text></g><g class="tick" opacity="1" transform="translate(0,232.42538021011114)"><line stroke="currentColor" x2="-6"/><text fill="currentColor" x="-9" dy="0.32em">1998</text></g><g class="tick" opacity="1" transform="translate(0,244.31903515758336)"><line stroke="currentColor" x2="-6"/><text fill="currentColor" x="-9" dy="0.32em">1999</text></g><g class="tick" opacity="1" transform="translate(0,256.2126901050556)"><line stroke="currentColor" x2="-6"/><text fill="currentColor" x="-9" dy="0.32em">2000</text></g><g class="tick" opacity="1" transform="translate(0,268.1063450525278)"><line stroke="currentColor" x2="-6"/><text fill="currentColor" x="-9" dy="0.32em">2001</text></g><g class="tick" opacity="1" transform="translate(0,280)"><line stroke="currentColor" x2="-6"/><text fill="currentColor" x="-9" dy="0.32em">2002</text></g><g class="tick" opacity="1" transform="translate(0,291.8936549474722)"><line stroke="currentColor" x2="-6"/><text fill="currentColor" x="-9" dy="0.32em">2003</text></g><g class="tick" opacity="1" transform="translate(0,303.7873098949444)"><line stroke="currentColor" x2="-6"/><text fill="currentColor" x="-9" dy="0.32em">2004</text></g><g class="tick" opacity="1" transform="translate(0,315.68096484241664)"><line stroke="currentColor" x2="-6"/><text fill="currentColor" x="-9" dy="0.32em">2005</text></g><g class="tick" opacity="1" transform="translate(0,327.5746197898889)"><line stroke="currentColor" x2="-6"/><text fill="currentColor" x="-9" dy="0.32em">2006</text></g><g class="tick" opacity="1" transform="translate(0,339.4682747373611)"><line stroke="currentColor" x2="-6"/><text fill="currentColor" x="-9" dy="0.32em">2007</text></g><g class="tick" opacity="1" transform="translate(0,351.36192968483334)"><line stroke="currentColor" x2="-6"/><text fill="currentColor" x="-9" dy="0.32em">2008</text></g><g class="tick" opacity="1" transform="translate(0,363.25558463230556)"><line stroke="currentColor" x2="-6"/><text fill="currentColor" x="-9" dy="0.32em">2009</text></g><g class="tick" opacity="1" transform="translate(0,375.14923957977777)"><line stroke="currentColor" x2="-6"/><text fill="currentColor" x="-9" dy="0.32em">2010</text></g><g class="tick" opacity="1" transform="translate(0,387.04289452725)"><line stroke="currentColor" x2="-6"/><text fill="currentColor" x="-9" dy="0.32em">2011</text></g><g class="tick" opacity="1" transform="translate(0,398.9365494747222)"><line stroke="currentColor" x2="-6"/><text fill="currentColor" x="-9" dy="0.32em">2012</text></g><g class="tick" opacity="1" transform="translate(0,410.8302044221944)"><line stroke="currentColor" x2="-6"/><text fill="currentColor" x="-9" dy="0.32em">2013</text></g><g class="tick" opacity="1" transform="translate(0,422.7238593696666)"><line stroke="currentColor" x2="-6"/><text fill="currentColor" x="-9" dy="0.32em">2014</text></g><g class="tick" opacity="1" transform="translate(0,434.61751431713884)"><line stroke="currentColor" x2="-6"/><text fill="currentColor" x="-9" dy="0.32em">2015</text></g><g class="tick" opacity="1" transform="translate(0,446.51116926461106)"><line stroke="currentColor" x2="-6"/><text fill="currentColor" x="-9" dy="0.32em">2016</text></g><g class="tick" opacity="1" transform="translate(0,458.4048242120833)"><line stroke="currentColor" x2="-6"/><text fill="currentColor" x="-9" dy="0.32em">2017</text></g><g class="tick" opacity="1" transform="translate(0,470.29847915955554)"><line stroke="currentColor" x2="-6"/><text fill="currentColor" x="-9" dy="0.32em">2018</text></g><g class="tick" opacity="1" transform="translate(0,482.19213410702775)"><line stroke="currentColor" x2="-6"/><text fill="currentColor" x="-9" dy="0.32em">2019</text></g><g class="tick" opacity="1" transform="translate(0,494.08578905449997)"><line stroke="currentColor" x2="-6"/><text fill="currentColor" x="-9" dy="0.32em">2020</text></g><g class="tick" opacity="1" transform="translate(0,505.9794440019722)"><line stroke="currentColor" x2="-6"/><text fill="currentColor" x="-9" dy="0.32em">2021</text></g><g class="tick" opacity="1" transform="translate(0,517.8730989494444)"><line stroke="currentColor" x2="-6"/><text fill="currentColor" x="-9" dy="0.32em">2022</text></g><g class="tick" opacity="1" transform="translate(0,529.7667538969166)"><line stroke="currentColor" x2="-6"/><text fill="currentColor" x="-9" dy="0.32em">2023</text></g><g class="tick" opacity="1" transform="translate(0,541.6604088443888)"><line stroke="currentColor" x2="-6"/><text fill="currentColor" x="-9" dy="0.32em">2024</text></g><g class="tick" opacity="1" transform="translate(0,553.554063791861)"><line stroke="currentColor" x2="-6"/><text fill="currentColor" x="-9" dy="0.32em">2025</text></g><text font-family="Arial, sans-serif" font-size="10" x="4" fill="black" font-weight="bold" text-anchor="start" dominant-baseline="hanging">release_year</text></g></g><text y="4" x="4" style="font-family: Arial, sans-serif; font-size: 12px; fill: black; font-weight: bold; dominant-baseline: hanging;"/></g></g><g id="legend" transform="translate(805,20)"><g transform="translate(5,0)"><g class="legendColor" transform="translate(0,0)"><g class="legendCells" transform="translate(0,15.833333015441895)"><g class="cell" transform="translate(0, 0)"><rect class="swatch" height="15" width="15" style="fill: rgb(245, 166, 35);"/><text class="label" transform="translate( 20, 12.5)" font-family="&quot;Arial&quot;, sans-serif" font-size="10px"><tspan x="0" dy="0em">Action</tspan></text></g><g class="cell" transform="translate(0, 20.833333015441895)"><rect class="swatch" height="15" width="15" style="fill: rgb(74, 144, 226);"/><text class="label" transform="translate( 20, 12.5)" font-family="&quot;Arial&quot;, sans-serif" font-size="10px"><tspan x="0" dy="0em">Adventure</tspan></text></g><g class="cell" transform="translate(0, 41.66666603088379)"><rect class="swatch" height="15" width="15" style="fill: rgb(44, 160, 44);"/><text class="label" transform="translate( 20, 12.5)" font-family="&quot;Arial&quot;, sans-serif" font-size="10px"><tspan x="0" dy="0em">Biography</tspan></text></g><g class="cell" transform="translate(0, 62.499999046325684)"><rect class="swatch" height="15" width="15" style="fill: rgb(214, 39, 40);"/><text class="label" transform="translate( 20, 12.5)" font-family="&quot;Arial&quot;, sans-serif" font-size="10px"><tspan x="0" dy="0em">Comedy</tspan></text></g><g class="cell" transform="translate(0, 83.33333206176758)"><rect class="swatch" height="15" width="15" style="fill: rgb(148, 103, 189);"/><text class="label" transform="translate( 20, 12.5)" font-family="&quot;Arial&quot;, sans-serif" font-size="10px"><tspan x="0" dy="0em">Crime</tspan></text></g><g class="cell" transform="translate(0, 104.16666507720947)"><rect class="swatch" height="15" width="15" style="fill: rgb(140, 86, 75);"/><text class="label" transform="translate( 20, 12.5)" font-family="&quot;Arial&quot;, sans-serif" font-size="10px"><tspan x="0" dy="0em">Drama</tspan></text></g><g class="cell" transform="translate(0, 124.99999809265137)"><rect class="swatch" height="15" width="15" style="fill: rgb(227, 119, 194);"/><text class="label" transform="translate( 20, 12.5)" font-family="&quot;Arial&quot;, sans-serif" font-size="10px"><tspan x="0" dy="0em">Family</tspan></text></g><g class="cell" transform="translate(0, 145.83333110809326)"><rect class="swatch" height="15" width="15" style="fill: rgb(127, 127, 127);"/><text class="label" transform="translate( 20, 12.5)" font-family="&quot;Arial&quot;, sans-serif" font-size="10px"><tspan x="0" dy="0em">Thriller</tspan></text></g></g><text class="legendTitle" font-family="&quot;Arial&quot;, sans-serif" font-size="12px" font-weight="bold"><tspan x="0" dy="0em">genre</tspan></text></g></g></g></svg>